<svg id="Capa_1" data-name="Capa 1" xmlns="http://www.w3.org/2000/svg" viewBox="0 0 24 24"><defs><style>.cls-1{fill:#fff;}</style></defs><path class="cls-1" d="M15,3A12,12,0,0,0,4.71,21.15L3.11,27l6-1.57A12,12,0,1,0,15,3ZM10.89,9.4h.57c.21,0,.45,0,.67.51s.84,2.06.92,2.21a.56.56,0,0,1,0,.52,2.5,2.5,0,0,1-.29.5c-.15.17-.31.38-.45.51a.44.44,0,0,0-.13.61,8.9,8.9,0,0,0,1.65,2.06,8.17,8.17,0,0,0,2.39,1.47c.3.15.47.13.64-.07s.75-.87.95-1.16.39-.25.66-.15,1.74.82,2,1,.49.23.56.35a2.39,2.39,0,0,1-.17,1.41,2.93,2.93,0,0,1-2,1.41c-.55.05-1.06.25-3.57-.74a12.21,12.21,0,0,1-5.08-4.49,5.73,5.73,0,0,1-1.21-3.07,3.36,3.36,0,0,1,1-2.48A1.11,1.11,0,0,1,10.89,9.4Z" transform="translate(-3 -3)"/></svg>